<?xml version="1.0" encoding="UTF-8" standalone="no"?>
<!-- Created with Inkscape (http://www.inkscape.org/) -->

<svg
   xmlns:dc="http://purl.org/dc/elements/1.1/"
   xmlns:cc="http://creativecommons.org/ns#"
   xmlns:rdf="http://www.w3.org/1999/02/22-rdf-syntax-ns#"
   xmlns:svg="http://www.w3.org/2000/svg"
   xmlns="http://www.w3.org/2000/svg"
   xmlns:sodipodi="http://sodipodi.sourceforge.net/DTD/sodipodi-0.dtd"
   xmlns:inkscape="http://www.inkscape.org/namespaces/inkscape"
   id="svg2"
   version="1.1"
   inkscape:version="0.91 r13725"
   xml:space="preserve"
   width="450"
   height="450"
   viewBox="0 0 450 450"
   sodipodi:docname="africalight.svg"><metadata
     id="metadata8"><rdf:RDF><cc:Work
         rdf:about=""><dc:format>image/svg+xml</dc:format><dc:type
           rdf:resource="http://purl.org/dc/dcmitype/StillImage" /><dc:title></dc:title></cc:Work></rdf:RDF></metadata><defs
     id="defs6"><pattern
       y="0"
       x="0"
       height="6"
       width="6"
       patternUnits="userSpaceOnUse"
       id="EMFhbasepattern" /><clipPath
       clipPathUnits="userSpaceOnUse"
       id="clipPath4444"><rect
         style="opacity:1;fill:#000000;fill-opacity:1;fill-rule:nonzero;stroke:none;stroke-width:1.20000005;stroke-linecap:butt;stroke-linejoin:miter;stroke-miterlimit:4;stroke-dasharray:none;stroke-dashoffset:0;stroke-opacity:1"
         id="rect4446"
         width="278.36478"
         height="177.6998"
         x="-46.783409"
         y="-493.23621"
         transform="matrix(0.92853224,-0.37125179,-0.37125179,-0.92853224,0,0)" /></clipPath></defs><sodipodi:namedview
     pagecolor="#ffffff"
     bordercolor="#666666"
     borderopacity="1"
     objecttolerance="10"
     gridtolerance="10"
     guidetolerance="10"
     inkscape:pageopacity="0"
     inkscape:pageshadow="2"
     inkscape:window-width="1920"
     inkscape:window-height="1017"
     id="namedview4"
     showgrid="false"
     inkscape:zoom="0.7628672"
     inkscape:cx="458.77042"
     inkscape:cy="79.557009"
     inkscape:window-x="-8"
     inkscape:window-y="-8"
     inkscape:window-maximized="1"
     inkscape:current-layer="g10" /><g
     id="g10"
     inkscape:groupmode="layer"
     inkscape:label="ink_ext_XXXXXX"
     transform="matrix(1.25,0,0,-1.25,0,450)"><g
       id="g4576"
       transform="matrix(1,0,0,0.98498758,6.7056785,1.1579148)"><g
         transform="translate(0.26291089,-1.5664757)"
         id="g4526"><g
           id="g4408"><g
             id="g4382"><path
               inkscape:connector-curvature="0"
               id="path14"
               style="fill:#8fc43e;fill-opacity:1;fill-rule:nonzero;stroke:none"
               d="m 56.552402,324.83883 c 0.5968,1.428 0.614,3.352 0.271,4.525 -0.3105,1.204 -0.6804,1.904 -0.8296,2.285 -0.0809,0.19 -0.1289,0.31 -0.1473,0.339 l -0.0113,0.01 c -0.0039,0 -0.0082,-0.001 -0.0121,-0.001 0.0703,0.119 0.1683,0.262 0.2929,0.415 0.4594,0.567 1.1801,1.215 1.9477,1.814 6.6222,4.818 13.5793,7.986 17.859,10.499 4.4265,2.463 6.8074,4.093 6.5386,4.807 -0.2629,0.697 -3.1422,0.417 -8.1164,-0.858 -4.9898,-1.442 -11.9984,-3.177 -20.666,-8.086 -1.0922,-0.683 -2.2226,-1.447 -3.4086,-2.586 -1.0914,-1.095 -2.6949,-2.873 -2.8926,-5.822 -0.0367,-1.891 0.4469,-3.294 0.7254,-4.059 -0.0082,-0.007 -0.0144,-0.014 -0.023,-0.021 -0.4738,-0.408 -1.4094,-1.017 -2.4301,-1.559 l -0.393,-0.207 -0.0984,-0.052 -0.0492,-0.026 c 0.1222,0.083 -1.1496,-0.765 -0.6238,-0.416 l -0.0266,-0.019 -0.2121,-0.159 -0.852,-0.64 -1.7222,-1.296 c -2.3028,-1.757 -4.6477,-3.61 -6.9879,-5.603 -9.3301,-7.934 -19.1672,-17.709 -26.5105698,-30.602 -3.65743,-6.417 -6.29688,-13.405 -7.54062996,-20.498 -1.211328,-7.099 -0.924219,-14.25 0.63788996,-20.659 1.53672,-6.425 4.16055,-12.108 7.16094,-16.926 0.43125,-0.672 0.61875,-1.051 1.24258,-1.945 l 1.1065898,-1.528 c 0.7278,-1.026 1.4399,-2.025 2.1426,-3.037 1.3989,-2.002 2.7723,-3.976 4.1332,-5.841 5.3731,-7.587 11.27,-13.04 15.8539,-15.688 4.5668,-2.733 7.4664,-3.362 7.8067,-2.759 0.8726,1.526 -8.8817,7.14 -17.1864,22.664 -1.105,1.926 -2.2449,3.969 -3.4859,6.139 -0.6117,1.077 -1.2695,2.192 -1.9379,3.318 l -1.0418,1.71 c -0.1109,0.186 -0.516,0.989 -0.7644,1.459 -2.3028,4.386 -4.1856,9.288 -5.1883,14.559 -2.1437598,10.543 0.1469,22.543 6.5844,33.673 6.3406,11.184 15.1668,20.521 23.6554,28.418 2.1243,1.986 4.2625,3.866 6.3614,5.675 l 1.5703,1.34 0.7761,0.664 0.1067,0.091 0.2289,0.141 c 1.3379,0.859 2.6785,1.754 4.1031,3.215 0.6992,0.744 1.4852,1.712 2.0528,3.133 z m -8.2774,2.627 c -0.0195,-0.041 -0.0437,0.116 -0.0449,0.301 0.0594,-0.173 0.0848,-0.278 0.0449,-0.301 z m 30.2684,12.009 c -0.3035,-0.135 -0.1328,-1.264 1.3976,-2.064 1.484,-0.791 3.7121,-1.02 6.3321,-0.913 5.2871,0.189 12.4035,1.738 21.026498,3.074 8.539,1.262 18.945,2.532 29.062,-0.107 0.007,-0.001 0.013,-0.004 0.02,-0.005 -0.395,-0.873 -0.916,-1.892 -1.478,-3.026 -0.366,-0.742 -0.756,-1.555 -1.145,-2.513 l -0.037,-0.087 -0.018,-0.044 c -0.478,-5.984 -0.118,-1.717 -0.218,-3.079 l 0.111,-0.407 0.265,-0.806 c 0.204,-0.593 0.397,-0.863 0.615,-1.275 0.456,-0.836 0.846,-1.24 1.296,-1.823 3.318,-3.516 6.335,-5.041 9.537,-6.822 3.178,-1.664 6.43,-3.082 9.788,-4.349 6.837,-2.425 13.208,-4.575 21.216,-4.756 1.071,0.036 2.129,0.068 3.493,0.391 1.486,0.355 2.881,0.916 4.271,2.031 2.839,2.292 3.652,5.591 3.83,7.685 0.035,0.376 0.055,0.734 0.069,1.086 0.526,-0.255 1.053,-0.504 1.582,-0.738 2.763,-1.267 5.583,-2.201 8.328,-2.946 5.51,-1.482 10.815,-1.921 15.528,-1.842 9.465,0.191 16.616,2.269 21.199,2.872 2.31,0.332 3.816,0.256 4.78,-0.082 0.981,-0.359 1.513,-0.88 1.883,-0.734 0.313,0.082 0.541,1.07 -0.49,2.44 -1.073,1.394 -3.489,2.346 -6.159,2.629 -5.398,0.654 -12.545,-0.201 -20.939,0.597 -4.182,0.397 -8.655,1.2 -13.178,2.793 -2.257,0.803 -4.55,1.731 -6.797,2.937 -1.129,0.585 -2.254,1.226 -3.37,1.916 l -1.676,1.061 c -0.882,0.488 -1.518,1.126 -3.748,1.656 -0.47,0.114 -1.49,0.195 -2.466,0 -1.213,-0.236 -2.437,-0.947 -3.276,-1.92 -1.507,-1.968 -1.362,-2.922 -1.564,-3.737 -0.162,-1.497 -0.079,-2.315 -0.062,-3.145 0.068,-1.568 0.115,-2.853 -0.018,-3.702 -0.03,-0.207 -0.064,-0.361 -0.095,-0.476 -0.216,-0.046 -0.724,-0.069 -1.216,-0.067 -4.859,0.161 -11.373,2.079 -17.27,4.276 -3.005,1.131 -5.93,2.394 -8.635,3.773 -2.041,1.017 -4.166,2.303 -5.529,3.374 0.543,1.169 1.152,2.458 1.712,4.011 0.331,0.941 0.677,1.999 0.832,3.506 0.151,1.337 0.098,3.89 -1.788,6.037 -1.777,1.967 -3.994,2.362 -4.393,2.49 -0.815,0.203 -1.618,0.462 -2.428,0.608 -13.052,2.659 -24.259,0.12 -33.022,-2.122 -8.811698,-2.396 -15.537098,-5.051 -20.110998,-6.435 -4.7382,-1.641 -6.3754,-0.991 -7.0472,-1.221 z m 98.826198,-18.435 c -0.043,-0.102 -0.059,-0.084 0,0 l 0,0 z m -37.284,20.373 c 0.094,0.034 0.082,0.021 -0.016,-0.014 0.005,0.004 0.01,0.01 0.016,0.014 z m 179.491,-110.117 c -3.608,0.495 -8.847,0.477 -14.698,1.215 -5.853,0.742 -12.159,2.794 -18.404,7.234 -6.306,4.494 -12.719,10.433 -18.173,17.678 -5.518,7.245 -9.91,15.104 -14.058,22.341 -1.098,1.916 -1.904,3.34 -3.186,5.551 -1.529,2.303 -3.085,3.759 -4.535,5.14 -2.893,2.672 -5.571,4.779 -7.361,6.693 -0.89,0.914 -1.44,1.825 -1.562,2.023 -0.021,0.193 -0.651,-0.337 0.483,1.306 1.47,2.284 2.499,4.47 3.073,6.368 1.139,3.887 0.362,6.18 -0.331,6.187 l 0,0 c -0.798,0.058 -1.516,-1.764 -3.488,-4.316 -1.003,-1.283 -2.323,-2.775 -4.019,-4.415 -0.45,-0.22 -3.05,-3.047 -2.631,-5.848 0.217,-2.675 1.34,-4.43 2.353,-6.019 2.12,-3.104 4.676,-5.625 6.987,-8.295 1.133,-1.3 2.237,-2.685 2.795,-3.775 0.576,-1.299 1.651,-3.512 2.518,-5.302 3.709,-7.568 8.047,-16.07 14.271,-24.262 6.219,-8.236 13.728,-14.798 21.425,-19.529 7.805,-4.88 16.653,-6.76 23.453,-6.477 6.846,0.23 11.855,1.464 15.331,2.256 3.46,0.858 5.388,1.567 5.386,2.329 -10e-4,0.747 -2.002,1.475 -5.629,1.917 z m -78.16,-152.1112 0,0 c -0.374,-0.1415 -0.178,-1.5387 0.258,-4.077 0.371,-2.498 1.244,-6.3262 0.712,-10.698 -0.28,-2.1614 -1.11,-4.2754 -2.787,-5.6504 -1.739,-1.4653 -4.148,-2.0325 -7.872,-2.7004 -0.566,-0.168 -1.043,-0.1883 -2.124,-0.7903 -0.393,-0.2847 -0.67,-0.4566 -1.07,-0.9629 -0.401,-0.5156 -0.642,-1.2468 -0.673,-1.3457 l -0.215,-0.5964 c -0.294,-0.8055 -0.576,-1.6282 -0.885,-2.4539 -0.683,-1.6309 -1.397,-3.302 -2.266,-4.9614 -1.715,-3.325 -3.859,-6.6668 -6.457,-9.9121 -5.177,-6.4976 -12.225,-12.5933 -20.749,-17.4402 -4.264,-2.3848 -8.902,-4.4981 -13.752,-5.9113 -2.407,-0.702 -4.899,-1.2262 -7.185,-1.36138 -2.37,-0.23828 -4.241,0.47188 -3.717,0.43208 -0.315,0.2656 -1.024,3.0742 -1.127,5.7312 -0.28,2.8066 -0.079,5.741 -0.968,9.7773 -1.503,6.7247 -4.788,13.17 -8.574,18.6551 -3.976,5.6614 -7.446,10.0832 -10.092,15.6328 -1.358,2.7911 -2.502,5.4731 -3.729,8.7969 -1.476,3.5317 -3.281,6.6047 -4.903,9.4942 -1.62,2.8859 -3.094,5.5949 -3.966,8.1425 -0.75,2.1821 -0.982,4.8645 -0.797,7.6543 0.364,5.6504 2.157,11.7232 3.697,18.0092 0.778,3.154 1.512,6.414 1.964,9.844 0.225,1.716 0.367,3.484 0.371,5.303 0.002,1.605 0.003,2.994 0.02,4.575 0.01,3.07 0.071,6.396 -0.543,9.96 -0.565,3.537 -1.991,7.225 -4.024,10.152 -3.833,5.691 -9.29,9.615 -12.735,12.774 -1.644,1.599 -2.447,2.824 -2.917,4.627 -0.463,1.827 -0.516,3.978 -0.33,6.438 0.288,5.396 0.507,10.911 -1.43,16.623 -0.973,2.825 -2.727,5.543 -4.885,7.53 -2.163,1.992 -4.533,3.312 -6.794,4.317 -4.549,1.96 -8.807,2.912 -12.797198,3.775 -3.8691,1.023 -8.2777,1.416 -11.9707,1.173 -7.5828,-0.494 -13.4684,-2.608 -18.1684,-4.082 -9.3222,-3.201 -14.5433,-4.368 -14.4972,-5.131 0.0293,-0.752 5.7711,-0.962 15.55,1.01 4.8617,0.865 10.7211,2.235 17.2222,2.094 3.3196,-0.102 6.4575,-0.568 10.225,-1.818 3.720298,-1.06 7.654298,-2.253 11.137298,-4.008 3.553,-1.795 5.991,-4.055 6.98,-7.533 1.07,-3.529 0.901,-8.291 0.399,-13.193 -0.29,-2.697 -0.476,-5.906 0.26,-9.329 0.654,-3.482 2.905,-7.043 5.223,-9.289 2.308,-2.321 4.427,-3.982 6.278,-5.811 1.797,-1.727 3.647,-3.868 4.838,-5.7 2.503,-3.725 2.77,-8.221 2.545,-14.411 -0.043,-1.475 -0.073,-3.16 -0.098,-4.644 -0.023,-1.27 -0.144,-2.602 -0.346,-3.979 -0.402,-2.752 -1.076,-5.645 -1.858,-8.652 -1.512,-6.027 -3.589,-12.42 -4.163,-19.9082 -0.25,-3.7429 -0.066,-7.7949 1.33,-11.9367 1.297,-3.7593 3.092,-6.9441 4.757,-9.9343 1.683,-2.9793 3.258,-5.7161 4.352,-8.3333 1.074,-2.9199 2.523,-6.3347 4.065,-9.4324 3.033,-6.3445 7.633,-12.1562 10.997,-16.8476 3.465,-4.9344 5.964,-9.7989 7.253,-15.0188 0.545,-1.9285 0.575,-5.1172 0.896,-8.2508 0.49,-3.205 0.325,-6.6257397 3.5,-11.1483997 1.954,-2.44922 4.649,-3.428516 6.716,-3.77812501 2.072,-0.3441406 3.907,-0.3417969 5.586,-0.173047 3.393,0.306641 6.405,1.07617201 9.28,1.99922201 5.732,1.86914 10.845,4.43633 15.54,7.29648 9.339,5.7902697 16.882,12.9484697 22.304,20.5902697 2.718,3.8113 4.905,7.7324 6.579,11.6074 0.849,1.9336 1.523,3.8719 2.146,5.7566 0.246,0.8391 0.467,1.6707 0.69,2.4903 3.029,0.8144 7.031,2.0007 9.57,4.7468 2.739,2.8313 3.455,6.4336 3.438,9.1371 -0.108,5.5528 -1.802,9.2032 -2.856,11.6454 -1.146,2.4179 -2.028,3.5402 -2.358,3.4129 z m -8.48,-29.1661 c -0.178,-0.0828 -0.123,-0.0515 0.006,0.0039 -0.002,-7e-4 -0.004,-0.0015 -0.006,-0.0039 z m 0.963,1.2453 0.002,0.004 c 0.041,0.1628 0.041,0.1242 -0.002,-0.004 z m 88.095,166.194 c -1.568,0.626 -5.417,-8.022 -15.675,-18.317 -5.129,-5.164 -11.786,-10.586 -20.022,-15.902 -4.168,-2.768 -8.715,-5.769 -13.208,-9.654 -4.427,-3.898 -8.906,-8.952 -11.455,-15.399 -1.317,-3.227 -2.096,-6.385 -2.382,-9.883 -0.263,-3.257 -0.122,-6.454 0.304,-9.422 0.824,-5.977 2.414,-11.155 3.573,-15.845 1.182,-4.68 1.917,-8.892 1.828,-12.73 -0.17,-3.464 -1.191,-7.349 -2.494,-10.3459 -2.7,-6.2136 -6.771,-10.4761 -9.651,-13.3496 -2.941,-2.8535 -4.751,-4.4824 -4.378,-5.1812 0.327,-0.6313 2.82,-0.2922 6.845,1.7176 3.925,2.0421 9.613,5.9382 14.04,13.248 2.162,3.7332 3.902,7.8591 4.677,13.2711 0.573,5.091 -0.037,10.419 -1.032,15.525 -2.028,10.102 -4.966,20.283 -1.202,28.891 3.476,8.818 12.339,14.947 20.33,20.924 8.321,6.037 15.257,12.742 20.059,19.065 9.76,12.825 11.108,23.077 9.843,23.387 z m -6.001,-116.622 c -1.568,0.084 -2.934,-4.6481 -5.128,-11.7516 -2.306,-7.1043 -5.298,-16.4676 -12.011,-25.2293 -1.396,-2.0793 -2.967,-3.9321 -4.704,-5.6789 -0.859,-0.8782 -1.767,-1.7207 -2.697,-2.5481 l -0.344,-0.3101 -0.172,-0.1543 -0.085,-0.0774 -0.013,-0.0105 -0.21,-0.1426 c -0.39,-0.2492 -0.741,-0.4531 -1.037,-0.6125 -0.604,-0.2996 -0.817,-0.3469 -0.913,-0.4094 -0.039,-0.0496 -0.066,0.0063 -0.112,-0.0281 l -0.037,-0.0156 c 0.101,-0.0536 -0.135,0.0547 0.005,-0.0176 -0.219,0.0871 -0.448,0.1797 -0.643,0.3555 -0.962,0.6269 -1.844,1.83 -2.437,3.1375 -0.566,1.164 -1.063,3.0238 -1.108,3.6183 -0.064,1.2735 0.012,2.5188 0.054,3.5996 0.101,2.1739 -0.109,3.6067 -0.83,3.8504 -0.709,0.2395 -1.792,-0.5476 -3.176,-2.4234 -0.685,-0.9465 -1.449,-2.218 -2.064,-3.9614 -0.728,-2.4167 -0.65,-4.1179 -0.343,-6.6726 0.397,-2.3887 1.328,-5.1848 3.656,-7.7102 0.55,-0.6492 1.238,-1.2078 1.992,-1.7351 l 0.562,-0.3992 0.142,-0.0989 c 0.69,-0.3465 0.301,-0.1425 0.504,-0.2414 l 0.385,-0.159 c 0.525,-0.1914 1.042,-0.4328 1.609,-0.5293 2.283,-0.5546 4.625,-0.175 6.387,0.45 0.888,0.3165 1.696,0.679 2.449,1.0625 l 1.065,0.5832 c 0.224,0.1583 -0.477,-0.341 0.507,0.3567 l 0.012,0.0105 0.027,0.0196 0.053,0.0398 0.106,0.0805 0.212,0.1609 0.426,0.3235 c 1.138,0.8601 2.298,1.7996 3.439,2.8457 2.292,2.0652 4.537,4.5535 6.417,7.3679 7.631,10.0215 10.187,22.0957 10.543,29.9922 0.347,8.127 -1.052,12.9982 -2.488,13.0622 z m -29.684,-25.1196 c 1.503,-0.4875 3.447,2.7691 4.555,7.2793 0.621,2.1785 1.312,4.4258 2.397,5.7808 1.022,1.334 2.741,2.6262 5.595,4.145 2.748,1.4937 6.213,3.1414 9.123,5.616 2.976,2.3585 5.24,6.1025 5.649,9.2515 0.634,6.304 -2.044,8.903 -3.311,8.668 -1.556,-0.17 -2.161,-3.492 -4.042,-6.295 -1.672,-2.615 -5.451,-4.114 -12.64,-7.641 -3.409,-1.784 -7.342,-4.7765 -9.238,-8.9691 -1.846,-4.1472 -1.532,-7.6492 -1.246,-10.0781 0.836,-4.8418 1.739,-7.2879 3.158,-7.7574" /><path
               style="fill:none;fill-rule:evenodd;stroke:#8fc43e;stroke-width:0.80607343px;stroke-linecap:butt;stroke-linejoin:miter;stroke-opacity:1"
               d="M 6.2920511,255.87677 C 31.492125,280.75331 84.447958,259.13063 127.41405,246.96304 181.56355,229.48511 238.877,195.22838 284.71534,177.75046"
               id="path4163"
               inkscape:connector-curvature="0"
               sodipodi:nodetypes="ccc" /><path
               style="fill:none;fill-rule:evenodd;stroke:#8fc43e;stroke-width:0.80607343px;stroke-linecap:butt;stroke-linejoin:miter;stroke-opacity:1"
               d="m 122.17067,171.98275 c 147.86323,-60.82317 148.9119,-60.82317 148.9119,-60.82317"
               id="path4165"
               inkscape:connector-curvature="0" /><path
               style="fill:none;fill-rule:evenodd;stroke:#8fc43e;stroke-width:0.80607343px;stroke-linecap:butt;stroke-linejoin:miter;stroke-opacity:1"
               d="m 36.703636,201.34566 c 5.173118,-4.75483 22.415435,-0.7865 22.415435,-0.7865"
               id="path4167"
               inkscape:connector-curvature="0"
               sodipodi:nodetypes="cc" /><path
               style="opacity:1;fill:#8fc43e;fill-opacity:1;fill-rule:nonzero;stroke:#8fc43e;stroke-width:1.51138771;stroke-linecap:butt;stroke-linejoin:miter;stroke-miterlimit:4;stroke-dasharray:none;stroke-dashoffset:0;stroke-opacity:1"
               d="m 301.3599,282.72121 c -15.54886,-6.353 -54.80675,-22.44073 -87.23974,-35.75049 l -58.96909,-24.19958 0.0533,-9.29119 c 0.0411,-7.16554 -0.12779,-10.13944 -0.73814,-12.99883 -2.86191,-13.40766 -11.33129,-19.60538 -32.92621,-24.0947 -9.27463,-1.92809 -18.47738,-1.4847 -28.502381,1.37324 -5.923977,1.68882 -23.968257,7.5576 -25.150105,8.17991 -0.569255,0.29974 -1.167337,0.74779 -1.329068,0.99566 -0.519995,0.79694 -9.026654,1.37615 -12.857193,0.87544 l -3.533073,-0.46183 -4.077464,-4.32502 c -5.137877,-5.4498 -9.171638,-10.38421 -11.798624,-14.433 -3.126433,-4.81854 -12.605537,-21.36843 -14.824349,-25.88233 -3.939984,-8.01542 -6.144697,-16.78136 -6.143279,-24.42568 l 8.29e-4,-4.46747 1.968848,-1.2249 c 15.12263,-9.40839 34.946265,-10.92309 65.230236,-4.98414 13.68666,2.68407 26.680613,6.25301 65.346933,17.94826 21.04047,6.36404 29.2378,9.18027 44.6534,15.34088 21.00594,8.39471 41.91504,17.89546 81.17419,36.88418 38.83164,18.78194 54.69322,26.15159 69.85328,32.4554 4.26278,1.77253 7.75606,3.35394 7.76284,3.51423 0.007,0.16029 -1.55851,1.47375 -3.47843,2.91879 -14.81928,11.15389 -22.00317,24.08127 -21.99732,39.58412 0.002,6.13636 0.84315,11.45091 3.45814,21.8574 1.6347,6.50541 3.4918,15.03637 3.4918,16.04034 0,0.52603 -3.43826,-0.80919 -29.42929,-11.42869 z"
               id="path4217"
               inkscape:connector-curvature="0"
               transform="matrix(0.8,0,0,-0.8,0,350)" /><path
               style="fill:none;fill-rule:evenodd;stroke:#8fc43e;stroke-width:0.80607343px;stroke-linecap:butt;stroke-linejoin:miter;stroke-opacity:1"
               d="m 242.10805,77.118648 -84.60751,34.984602 c -14.74132,3.64386 -15.97585,2.17706 -19.39143,1.53552"
               id="path4219"
               inkscape:connector-curvature="0"
               sodipodi:nodetypes="ccc" /><path
               style="opacity:1;fill:#8fc43e;fill-opacity:1;fill-rule:nonzero;stroke:#8fc43e;stroke-width:1.51138771;stroke-linecap:butt;stroke-linejoin:miter;stroke-miterlimit:4;stroke-dasharray:none;stroke-dashoffset:0;stroke-opacity:1"
               d="m 216.88826,424.34202 c -1.08168,-0.28345 -1.16091,-0.37599 -1.55772,-1.81929 -0.51734,-1.8817 -0.80519,-4.36314 -1.09468,-9.43705 -0.46772,-8.19753 -1.87146,-13.55722 -5.52601,-21.09923 -2.32264,-4.79331 -4.34854,-8.10898 -8.71137,-14.25738 -7.7698,-10.94973 -9.86431,-14.68094 -13.84133,-24.65723 -1.81934,-4.56379 -3.07829,-7.14288 -6.22885,-12.76045 -5.8369,-10.40741 -6.69499,-12.84794 -6.69854,-19.05155 -0.003,-4.99182 0.57755,-8.41984 3.30247,-19.50546 l 1.67407,-6.81045 2.55091,0.13913 c 3.02438,0.16496 7.97811,0.98081 12.63102,2.08026 3.17802,0.75094 6.19079,1.96425 55.61441,22.39726 28.7399,11.88183 52.3394,21.68423 52.44333,21.78313 0.47079,0.44801 1.34433,6.98112 1.47401,11.02394 0.12089,3.76882 0.0857,4.36869 -0.36007,6.13132 -1.29351,5.11513 -3.86639,7.03421 -11.49888,8.57689 -3.973,0.80303 -5.40352,1.73925 -6.27072,4.10396 -3.63519,9.91259 -7.47529,16.68693 -13.56733,23.93418 -2.72732,3.2445 -8.03487,8.47255 -11.32919,11.15951 -10.6935,8.72199 -23.65611,15.27524 -34.73835,17.562 -2.59521,0.53551 -7.10268,0.81167 -8.26718,0.50651 z"
               id="path4221"
               inkscape:connector-curvature="0"
               transform="matrix(0.8,0,0,-0.8,0,350)" /><path
               style="fill:none;fill-rule:evenodd;stroke:#8fc43e;stroke-width:0.80607343px;stroke-linecap:butt;stroke-linejoin:miter;stroke-opacity:1"
               d="m 282.15042,66.181147 2.56977,6.424421 2.25015,5.625363"
               id="path4223"
               inkscape:connector-curvature="0"
               sodipodi:nodetypes="ccc"
               inkscape:transform-center-x="-10.195975" /><path
               style="fill:none;fill-rule:evenodd;stroke:#8fc43e;stroke-width:0.80607343px;stroke-linecap:butt;stroke-linejoin:miter;stroke-opacity:1"
               d="m 312.55297,111.41419 c 6.1724,-11.973326 2.9929,-13.706729 2.9661,-13.718214"
               id="path4225"
               inkscape:connector-curvature="0"
               inkscape:transform-center-x="5.1039405"
               inkscape:transform-center-y="0.96209296"
               sodipodi:nodetypes="cc" /><path
               style="opacity:1;fill:#8fc43e;fill-opacity:1;fill-rule:nonzero;stroke:#8fc43e;stroke-width:1.51138771;stroke-linecap:butt;stroke-linejoin:miter;stroke-miterlimit:4;stroke-dasharray:none;stroke-dashoffset:0;stroke-opacity:1"
               d="m 359.78055,369.54744 c -1.46268,-1.07127 -2.73136,-3.10331 -3.68279,-5.8987 -0.45257,-1.32967 -0.51476,-2.02226 -0.54431,-6.0608 -0.0309,-4.22228 -0.0689,-4.60715 -0.51356,-5.2028 l -0.48022,-0.64323 1.73654,-4.34624 c 1.60219,-4.01 1.78703,-4.35734 2.38913,-4.48958 1.56454,-0.34363 3.30871,-3.43607 4.83118,-8.56578 1.7023,-5.73561 2.42143,-7.17937 4.58257,-9.20015 1.49024,-1.39345 2.82469,-2.2401 7.60806,-4.82695 7.47661,-4.04337 10.96995,-6.74855 13.45596,-10.42006 1.42948,-2.11117 2.84347,-5.41916 2.86322,-6.69842 l 0.009,-0.60097 0.31506,0.57931 c 0.49816,0.91599 1.89965,5.081 2.2049,6.5526 l 0.27769,1.33875 -0.70944,0.66272 c -1.05694,0.98733 -2.1619,3.51192 -3.85896,8.81691 -3.99626,12.49224 -5.72237,17.27582 -8.1481,22.58091 -3.67803,8.04383 -9.42333,16.46869 -15.06579,22.0923 -2.98563,2.97565 -4.2077,3.9529 -5.74805,4.59649 -0.67756,0.28311 -0.80191,0.26136 -1.52237,-0.26631 z"
               id="path4227"
               inkscape:connector-curvature="0"
               transform="matrix(0.8,0,0,-0.8,0,350)" /></g><path
             inkscape:connector-curvature="0"
             id="path4395"
             d="m 79.713983,348.88771 c 0.370761,-10.01059 0.370761,-10.01059 0.370761,-10.01059"
             style="fill:none;fill-rule:evenodd;stroke:#8fc43e;stroke-width:0.80607343px;stroke-linecap:butt;stroke-linejoin:miter;stroke-opacity:1" /><path
             inkscape:connector-curvature="0"
             id="path4397"
             d="m 240.40882,319.84597 c 0,-8.65157 0,-8.65157 0,-8.65157"
             style="fill:none;fill-rule:evenodd;stroke:#8fc43e;stroke-width:0.80607343px;stroke-linecap:butt;stroke-linejoin:miter;stroke-opacity:1" /><path
             inkscape:connector-curvature="0"
             id="path4399"
             d="m 323.7785,229.39773 c -2.35952,-14.68146 -2.35952,-14.68146 -2.35952,-14.68146"
             style="fill:#8fc43e;fill-opacity:1;fill-rule:evenodd;stroke:#8fc43e;stroke-width:0.80607343px;stroke-linecap:butt;stroke-linejoin:miter;stroke-opacity:1" /><path
             sodipodi:nodetypes="cc"
             inkscape:connector-curvature="0"
             id="path4404"
             d="M 18.876156,289.43439 C 123.56453,289.42124 211.05602,225.75768 303.59151,189.28589"
             style="fill:none;fill-rule:evenodd;stroke:#8fc43e;stroke-width:0.80607343px;stroke-linecap:butt;stroke-linejoin:miter;stroke-opacity:1" /><path
             transform="matrix(0.8,0,0,-0.8,0,350)"
             inkscape:connector-curvature="0"
             id="path4406"
             d="M 364.94377,194.24526 C 343.49385,185.25241 323.69753,176.08758 284.163,156.8473 240.40547,135.55182 224.48451,128.05269 204.69307,119.41514 141.78357,91.959651 91.680554,78.488276 41.656835,75.579015 38.592737,75.400812 34.347586,75.253585 32.223168,75.251841 l -3.86258,-0.0032 2.427477,-3.195182 C 39.113909,61.09451 54.066999,46.342932 65.916912,37.398017 70.816097,33.699863 72.448947,29.14816 70.625111,24.27352 l -0.689577,-1.843052 0.93536,-0.984254 c 2.12071,-2.231571 8.556745,-6.290259 18.545226,-11.6949762 3.37699,-1.8272728 6.886789,-3.7818274 7.799549,-4.3434544 0.912761,-0.561627 1.705408,-0.9670792 1.761437,-0.901005 0.05603,0.066074 0.193048,2.000377 0.304486,4.2984507 l 0.202614,4.1783159 -0.812464,0 c -1.587052,0 -0.616474,1.858814 1.585098,3.035714 1.27404,0.681069 1.77715,0.731693 7.10606,0.715036 5.45314,-0.01705 6.33074,-0.117175 17.86025,-2.037732 14.03212,-2.337436 19.01989,-2.957264 26.05303,-3.237595 5.31745,-0.211947 11.41724,0.205729 15.56627,1.065882 3.76839,0.78124 3.59361,0.378475 1.80488,4.159075 -2.98657,6.312342 -2.54764,9.218805 2.09469,13.870436 2.94357,2.949464 5.56254,4.758098 11.07976,7.651565 6.50425,3.411108 15.54554,6.906029 23.34897,9.025565 7.97402,2.165875 16.41903,2.785249 20.50973,1.50423 5.1266,-1.605414 8.20169,-5.259067 9.17108,-10.896589 l 0.37496,-2.180571 2.36821,1.079228 c 8.68741,3.95898 20.31248,6.078117 30.83814,5.621498 5.88434,-0.255274 9.80158,-0.75837 18.42452,-2.366287 6.18177,-1.15271 11.03683,-1.566685 12.29839,-1.048639 0.50029,0.205435 0.57368,0.728334 0.57489,4.096388 l 0.001,3.860888 -1.81197,2.670527 c -0.99659,1.468788 -3.29424,4.242849 -5.1059,6.164579 -1.81166,1.92173 -3.57439,4.111803 -3.91718,4.86683 -0.80699,1.777491 -0.80338,4.211827 0.0101,6.82741 1.03393,3.324252 2.46489,5.258468 11.57531,15.646226 1.51953,1.732579 2.61367,3.623157 5.46165,9.437259 10.28716,21.001092 17.8548,32.404392 28.24638,42.563052 9.23744,9.03039 18.91696,15.4593 28.01894,18.6095 6.54508,2.26527 9.21451,2.67139 17.48132,2.65953 8.01978,-0.0115 11.3389,-0.42782 19.7128,-2.47266 2.1879,-0.53426 4.04638,-0.90297 4.13001,-0.81935 0.24123,0.24121 -1.59828,11.41828 -2.00815,12.20199 -0.45525,0.87045 -8.43112,11.49907 -11.15089,14.85964 -2.67697,3.3077 -10.4428,11.229 -14.33119,14.61808 -1.73573,1.51283 -3.21043,2.74815 -3.27712,2.74516 -0.0667,-0.003 -3.58679,-1.45838 -7.82246,-3.23418 l 10e-5,0 z"
             style="opacity:1;fill:#8fc43e;fill-opacity:1;fill-rule:nonzero;stroke:#8fc43e;stroke-width:1.51138771;stroke-linecap:butt;stroke-linejoin:miter;stroke-miterlimit:4;stroke-dasharray:none;stroke-dashoffset:0;stroke-opacity:1" /></g><g
           id="g4434"
           transform="matrix(0.73377469,5.1750586e-4,-5.1750586e-4,0.73377469,12.386167,51.106257)"
           clip-path="url(#clipPath4444)"><g
             id="g4522"
             transform="translate(-1.428647,0.7155834)"><path
               inkscape:connector-curvature="0"
               style="fill:#ffcc00"
               d="m 306.44968,238.1259 42.816,21.408 -42.816,21.408 c -2.8672,1.4336 -3.6096,5.184 -1.5104,7.6032 l 18.4064,21.2224 -28.0192,1.9904 c -3.1936,0.224 -5.3184,3.4048 -4.3072,6.4448 l 15.136,45.4144 -45.4144,-15.136 c -3.04,-1.0112 -6.2208,1.1136 -6.4448,4.3072 l -1.9904,28.0192 -21.2224,-18.4064 c -2.4192,-2.0992 -6.1696,-1.3504 -7.6032,1.5104 l -21.4144,42.8224 -21.408,-42.816 c -1.4336,-2.8672 -5.184,-3.6096 -7.6032,-1.5104 l -21.2224,18.4064 -1.9904,-28.0192 c -0.224,-3.1936 -3.4048,-5.3184 -6.4448,-4.3072 l -45.414402,15.136 15.136002,-45.4144 c 1.0112,-3.04 -1.1136,-6.2208 -4.3072,-6.4448 l -28.019202,-1.9904 18.4064,-21.2224 c 2.099202,-2.4192 1.350402,-6.1696 -1.5104,-7.6032 l -42.8224,-21.4144 42.816,-21.408 c 2.867202,-1.4336 3.609602,-5.184 1.5104,-7.6032 l -18.4064,-21.2224 28.019202,-1.9904 c 3.1936,-0.224 5.3184,-3.4048 4.3072,-6.4448 l -15.136002,-45.4144 45.414402,15.136 c 3.04,1.0112 6.2208,-1.1136 6.4448,-4.3072 l 1.9904,-28.0192 21.2224,18.4064 c 2.4192,2.0992 6.1696,1.3504 7.6032,-1.5104 l 21.4144,-42.8224 21.408,42.816 c 1.4336,2.8672 5.184,3.6096 7.6032,1.5104 l 21.2224,-18.4064 1.9904,28.0192 c 0.224,3.1936 3.4048,5.3184 6.4448,4.3072 l 45.4144,-15.136 -15.136,45.4144 c -1.0112,3.04 1.1136,6.2208 4.3072,6.4448 l 28.0192,1.9904 -18.4064,21.2224 c -2.0992,2.4256 -1.3504,6.176 1.5168,7.6096 z"
               id="path5" /><circle
               r="88.32"
               style="fill:#ffdd55"
               cx="202.06567"
               cy="-259.53391"
               id="circle7"
               transform="scale(1,-1)" /></g></g></g><rect
         transform="scale(1,-1)"
         y="-364.31128"
         x="-6.7056785"
         height="360"
         width="360"
         id="rect4549"
         style="opacity:1;fill:none;fill-opacity:1;fill-rule:nonzero;stroke:none;stroke-width:1.5;stroke-linecap:butt;stroke-linejoin:miter;stroke-miterlimit:4;stroke-dasharray:none;stroke-dashoffset:0;stroke-opacity:1" /></g></g></svg>